 http://img11.imageshack.us/img11/3918/sharknight.jpg


Verenigde Staten
Horror / Thriller
91 minuten

geregisseerd door David R. Ellis
met Sara Paxton, Alyssa Diaz en Dustin Milligan

Een groepje van zeven studenten brengt een weekendje door in een huisje aan een meer om er een kleine vakantie te houden. Wanneer de vrienden aangevallen worden door bloeddorstige zoetwaterhaaien, zullen ze alles op alles moeten zetten om niet aan hen ten prooi te vallen.



Vertaald door Simply ReleaseS Toppers
Jesprulin





Screenshots:
 
http://img534.imageshack.us/img534/4815/screenshot1ed.jpg
 
http://img651.imageshack.us/img651/9900/screenshot2ebb.jpg
 
http://img824.imageshack.us/img824/6058/screenshot3rs.jpg
 
http://img69.imageshack.us/img69/5021/screenshot4ymf.jpg





INFO;


Format                                   : AVI
Format/Info                              : Audio Video Interleave
File size                                : 706 MiB
Duration                                 : 1h 26mn
Overall bit rate mode                    : Variable
Overall bit rate                         : 1 139 Kbps
Writing application                      : VirtualDubMod 1.5.10.2 (build 2542/release)
Writing library                          : VirtualDubMod build 2542/release

Video
ID                                       : 0
Format                                   : MPEG-4 Visual
Format profile                           : Advanced Simple@L5
Format settings, BVOP                    : 1
Format settings, QPel                    : No
Format settings, GMC                     : No warppoints
Format settings, Matrix                  : Default (H.263)
Muxing mode                              : Packed bitstream
Codec ID                                 : XVID
Codec ID/Hint                            : XviD
Duration                                 : 1h 26mn
Bit rate                                 : 1 018 Kbps
Width                                    : 608 pixels
Height                                   : 336 pixels
Display aspect ratio                     : 16:9
Frame rate                               : 25.000 fps
Color space                              : YUV
Chroma subsampling                       : 4:2:0
Bit depth                                : 8 bits
Scan type                                : Progressive
Compression mode                         : Lossy
Bits/(Pixel*Frame)                       : 0.199
Stream size                              : 630 MiB (89%)
Writing library                          : XviD 64

Audio
ID                                       : 1
Format                                   : MPEG Audio
Format version                           : Version 1
Format profile                           : Layer 3
Mode                                     : Joint stereo
Mode extension                           : MS Stereo
Codec ID                                 : 55
Codec ID/Hint                            : MP3
Duration                                 : 1h 26mn
Bit rate mode                            : Variable
Bit rate                                 : 109 Kbps
Nominal bit rate                         : 128 Kbps
Channel(s)                               : 2 channels
Sampling rate                            : 48.0 KHz
Compression mode                         : Lossy
Stream size                              : 67.2 MiB (10%)
Alignment                                : Aligned on interleaves
Interleave, duration                     : 24 ms (0.60 video frame)
Interleave, preload duration             : 543 ms



 
http://www.imdb.com/title/tt1633356/ 
http://www.moviemeter.nl/film/76080





Deze film wordt u aangeboden door het DutchReleaseTeam.
Voor de reviews van de nieuwste films, muziek, series, games etc
ga dan eens naar http://www.hetmultimediacafe.be

DutchReleaseteam = Hardcoded Dutch Subs